<svg width="87" height="49" viewBox="0 0 87 49" fill="none" xmlns="http://www.w3.org/2000/svg">
<path d="M20.1201 40V39.496C15.1361 39.048 13.5121 37.928 13.5121 34.624V8.584H13.1201L0.240061 14.016L0.408061 14.576C1.97606 14.016 3.15206 13.736 3.99206 13.736C6.06406 13.736 6.90406 14.8 6.90406 17.208V34.624C6.90406 37.984 5.39206 38.992 0.296061 39.496V40H20.1201ZM33.1406 48.68C36.6126 48.68 39.5246 47.616 41.8206 45.488C44.1166 43.36 45.2366 40.728 45.2366 37.592C45.2366 31.376 40.6446 27.736 33.9806 27.792V27.568C40.5326 26.896 44.6766 23.032 44.6766 17.6C44.6766 12.056 40.2526 8.584 33.4766 8.584C26.9246 8.584 22.3326 12 21.4926 17.432L22.0526 17.656C23.1166 13.456 25.9726 10.992 30.1726 10.992C34.6526 10.992 37.3966 14.016 37.3966 18.776C37.3966 23.928 34.0366 27.344 28.8846 27.344H27.7086V28.128H28.8286C34.6526 28.128 37.9006 31.32 37.9006 36.976C37.9006 42.632 34.4286 46.44 29.4446 46.44C26.1966 46.44 23.6766 44.984 21.9406 42.016L21.3246 42.352C23.2846 46.384 27.7086 48.68 33.1406 48.68ZM63.4486 0.799997H47.9926V1.192C51.0726 1.696 52.0246 2.872 52.0246 6.232V34.176C52.0246 38.04 51.1286 39.16 47.9926 39.608V40H63.4486V39.608C60.4806 39.16 59.4166 37.704 59.4166 34.176V6.232C59.4166 3.04 60.3686 1.696 63.4486 1.192V0.799997ZM65.6326 15.696L74.5926 6.96C76.5526 5.112 78.1766 3.768 79.4646 2.928C80.7526 2.088 82.2646 1.472 84.0006 1.192V0.799997H70.3926V1.192C73.4726 1.416 74.5926 2.2 74.5926 3.824C74.5926 5 73.9206 5.896 71.5126 8.192L59.4166 19.84L74.5366 40H86.5766V39.608C85.2886 39.44 84.2246 38.992 83.4406 38.376C82.6566 37.76 81.5926 36.584 80.2486 34.848L65.6326 15.696Z" fill="#171B37"/>
</svg>
