<svg width="88" height="49" viewBox="0 0 88 49" fill="none" xmlns="http://www.w3.org/2000/svg">
<path d="M20.1199 40V39.496C15.1359 39.048 13.5119 37.928 13.5119 34.624V8.584H13.1199L0.239939 14.016L0.407939 14.576C1.97594 14.016 3.15194 13.736 3.99194 13.736C6.06394 13.736 6.90394 14.8 6.90394 17.208V34.624C6.90394 37.984 5.39194 38.992 0.295939 39.496V40H20.1199ZM31.6688 48.68C35.6448 48.68 38.9488 47.56 41.5808 45.264C44.2128 42.968 45.5568 39.944 45.5568 36.136C45.5568 29.192 41.3008 24.656 33.0688 24.656C30.2688 24.656 28.0288 25.216 26.2928 26.392L29.0368 15.08H45.7808L47.5168 9.424H28.5328L24.1088 28.016L25.1168 28.576C26.5168 27.288 28.3088 26.672 30.5488 26.672C35.0848 26.672 38.2208 30.424 38.2208 36.248C38.2208 42.8 34.8048 46.832 29.5968 46.832C25.7888 46.832 23.2128 45.264 21.8128 42.072L21.0288 42.52C22.8768 46.608 26.4048 48.68 31.6688 48.68ZM64.4875 0.799997H49.0315V1.192C52.1115 1.696 53.0635 2.872 53.0635 6.232V34.176C53.0635 38.04 52.1675 39.16 49.0315 39.608V40H64.4875V39.608C61.5195 39.16 60.4555 37.704 60.4555 34.176V6.232C60.4555 3.04 61.4075 1.696 64.4875 1.192V0.799997ZM66.6715 15.696L75.6315 6.96C77.5915 5.112 79.2155 3.768 80.5035 2.928C81.7915 2.088 83.3035 1.472 85.0395 1.192V0.799997H71.4315V1.192C74.5115 1.416 75.6315 2.2 75.6315 3.824C75.6315 5 74.9595 5.896 72.5515 8.192L60.4555 19.84L75.5755 40H87.6155V39.608C86.3275 39.44 85.2635 38.992 84.4795 38.376C83.6955 37.76 82.6315 36.584 81.2875 34.848L66.6715 15.696Z" fill="#171B37"/>
</svg>
