<svg width="88" height="40" viewBox="0 0 88 40" fill="none" xmlns="http://www.w3.org/2000/svg">
<path d="M20.12 39.8828V39.3788C15.136 38.9308 13.512 37.8108 13.512 34.5068V8.46681H13.12L0.24 13.8988L0.408 14.4588C1.976 13.8988 3.152 13.6188 3.992 13.6188C6.064 13.6188 6.904 14.6828 6.904 17.0908V34.5068C6.904 37.8668 5.392 38.8748 0.296 39.3788V39.8828H20.12ZM37.8157 0.68281H22.3597V1.07481C25.4397 1.57881 26.3917 2.75481 26.3917 6.11481V34.0588C26.3917 37.9228 25.4957 39.0428 22.3597 39.4908V39.8828H37.8157V39.4908C34.8477 39.0428 33.7837 37.5868 33.7837 34.0588V6.11481C33.7837 2.92281 34.7357 1.57881 37.8157 1.07481V0.68281ZM39.9997 15.5788L48.9597 6.84281C50.9197 4.99481 52.5437 3.65081 53.8317 2.81081C55.1197 1.97081 56.6317 1.35481 58.3677 1.07481V0.68281H44.7597V1.07481C47.8397 1.29881 48.9597 2.08281 48.9597 3.70681C48.9597 4.88281 48.2877 5.77881 45.8797 8.07481L33.7837 19.7228L48.9037 39.8828H60.9437V39.4908C59.6557 39.3228 58.5917 38.8748 57.8077 38.2588C57.0237 37.6428 55.9597 36.4668 54.6157 34.7308L39.9997 15.5788ZM77.2245 22.0188V11.4908H75.9365V22.0188H65.3525V23.2508H75.9365V33.7228H77.2245V23.2508H87.7525V22.0188H77.2245Z" fill="#171B37"/>
</svg>
