<svg width="131" height="41" viewBox="0 0 131 41" fill="none" xmlns="http://www.w3.org/2000/svg">
<path d="M23.1359 39.9995L24.9839 34.1195H8.63194L12.2159 31.2635C16.6399 28.0155 19.6639 25.3835 21.2879 23.3675C22.9119 21.3515 23.6959 19.1675 23.6959 16.7595C23.6959 11.7755 19.8879 8.58351 13.6719 8.58351C7.00794 8.58351 2.52794 12.2795 1.79994 18.7195L2.41594 18.7755C3.47994 14.3515 6.33594 11.7755 10.1999 11.7755C14.0079 11.7755 16.4159 14.3515 16.4159 18.8315C16.4159 21.3515 15.7999 23.6475 14.5679 25.6635C13.2799 27.6795 11.1519 30.0875 8.07194 32.8315L0.567939 39.6635V39.9995H23.1359ZM52.225 36.5275C54.969 33.6715 56.369 29.6955 56.369 24.7115C56.369 19.7275 54.969 15.7515 52.225 12.8955C49.481 10.0395 46.065 8.58351 41.977 8.58351C37.889 8.58351 34.473 10.0395 31.729 12.8955C28.985 15.7515 27.585 19.7275 27.585 24.7115C27.585 29.6955 28.985 33.6715 31.729 36.5275C34.473 39.3835 37.889 40.8395 41.977 40.8395C46.065 40.8395 49.481 39.3835 52.225 36.5275ZM36.545 35.7995C35.425 33.3915 34.865 29.6955 34.865 24.7115C34.865 19.7275 35.425 15.9755 36.545 13.5675C37.609 11.1595 39.457 9.98351 41.977 9.98351C44.497 9.98351 46.345 11.1595 47.465 13.5675C48.529 15.9755 49.089 19.7275 49.089 24.7115C49.089 29.6955 48.529 33.3915 47.465 35.7995C46.345 38.2075 44.497 39.4395 41.977 39.4395C39.457 39.4395 37.609 38.2075 36.545 35.7995ZM84.8031 36.5275C87.5471 33.6715 88.9471 29.6955 88.9471 24.7115C88.9471 19.7275 87.5471 15.7515 84.8031 12.8955C82.0591 10.0395 78.6431 8.58351 74.5551 8.58351C70.4671 8.58351 67.0511 10.0395 64.3071 12.8955C61.5631 15.7515 60.1631 19.7275 60.1631 24.7115C60.1631 29.6955 61.5631 33.6715 64.3071 36.5275C67.0511 39.3835 70.4671 40.8395 74.5551 40.8395C78.6431 40.8395 82.0591 39.3835 84.8031 36.5275ZM69.1231 35.7995C68.0031 33.3915 67.4431 29.6955 67.4431 24.7115C67.4431 19.7275 68.0031 15.9755 69.1231 13.5675C70.1871 11.1595 72.0351 9.98351 74.5551 9.98351C77.0751 9.98351 78.9231 11.1595 80.0431 13.5675C81.1071 15.9755 81.6671 19.7275 81.6671 24.7115C81.6671 29.6955 81.1071 33.3915 80.0431 35.7995C78.9231 38.2075 77.0751 39.4395 74.5551 39.4395C72.0351 39.4395 70.1871 38.2075 69.1231 35.7995ZM107.363 0.799509H91.9065V1.19151C94.9865 1.69551 95.9385 2.87151 95.9385 6.23151V34.1755C95.9385 38.0395 95.0425 39.1595 91.9065 39.6075V39.9995H107.363V39.6075C104.395 39.1595 103.331 37.7035 103.331 34.1755V6.23151C103.331 3.03951 104.283 1.69551 107.363 1.19151V0.799509ZM109.547 15.6955L118.507 6.95951C120.467 5.11151 122.091 3.76751 123.379 2.92751C124.667 2.08751 126.179 1.47151 127.915 1.19151V0.799509H114.307V1.19151C117.387 1.41551 118.507 2.19951 118.507 3.82351C118.507 4.99951 117.835 5.89551 115.427 8.19151L103.331 19.8395L118.451 39.9995H130.491V39.6075C129.203 39.4395 128.139 38.9915 127.355 38.3755C126.571 37.7595 125.507 36.5835 124.163 34.8475L109.547 15.6955Z" fill="#171B37"/>
</svg>
