<svg width="128" height="121" viewBox="0 0 128 121" fill="none" xmlns="http://www.w3.org/2000/svg">
<path d="M84.6613 96.1075C108.131 82.5574 117.906 55.5507 106.495 35.7864C95.0843 16.0221 66.8082 10.9845 43.3387 24.5346C19.8692 38.0847 10.0939 65.0914 21.5048 84.8557C32.9157 104.62 61.1918 109.658 84.6613 96.1075Z" fill="white"/>
<path d="M48.5846 60.2287C51.2886 60.2287 52.9046 59.1727 52.9046 57.0607C52.9046 54.9487 51.2886 53.8927 48.5846 53.8927H44.1526V54.0047C45.0326 54.1487 45.3046 54.4847 45.3046 55.4447V63.4287C45.3046 64.5327 45.0486 64.8527 44.1526 64.9807V65.0927H49.0966V64.9807C47.7686 64.8687 47.4166 64.5167 47.4166 63.3807V60.2287H48.5846ZM48.1526 54.2287C49.6886 54.2287 50.6326 55.2527 50.6326 57.0607C50.6326 58.8687 49.6886 59.8927 48.1526 59.8927H47.4166V54.2287H48.1526ZM61.7985 60.6767C61.4785 62.1327 61.0305 63.1727 60.4705 63.7967C59.8945 64.4367 59.0145 64.7567 57.8305 64.7567H57.0785V55.4447C57.0785 54.5327 57.3505 54.1487 58.2305 54.0047V53.8927H53.8145V54.0047C54.6945 54.1487 54.9665 54.4847 54.9665 55.4447V63.4287C54.9665 64.5327 54.7105 64.8527 53.8145 64.9807V65.0927H61.4625L61.9105 60.6767H61.7985ZM69.2796 53.8927H67.5676L64.2876 63.1567C63.8556 64.3567 63.4876 64.8047 62.6556 64.9807V65.0927H65.7436V64.9807C64.7676 64.8047 64.4476 64.4047 64.8156 63.1727L65.5676 60.9967H69.5516L70.2716 63.0767C70.6716 64.3087 70.4956 64.7887 69.5516 64.9807V65.0927H74.0796V64.9807C73.3596 64.8367 73.0716 64.5007 72.6876 63.4287L69.2796 53.8927ZM67.5676 55.2047L69.4236 60.5967H65.7116L67.5676 55.2047ZM80.4866 54.0047C81.1586 54.0687 81.4946 54.3727 81.4946 54.9007C81.4946 55.1887 81.3826 55.5247 81.1746 55.9087L79.1906 59.4927L77.1586 55.7647C76.9666 55.3967 76.8706 55.0927 76.8706 54.8687C76.8706 54.3567 77.2226 54.0687 77.9106 54.0047V53.8927H73.2706V54.0047C73.9106 54.0527 74.3426 54.4687 74.9186 55.5087L77.3186 59.9567V63.3807C77.3186 64.5167 76.9666 64.8687 75.6386 64.9807V65.0927H81.0946V64.9807C79.8786 64.8687 79.4786 64.5487 79.4306 63.6047V59.8927L81.7666 55.6047C82.3106 54.5967 82.9026 54.0527 83.5426 54.0047V53.8927H80.4866V54.0047Z" fill="#171B37"/>
</svg>
