<svg width="6" height="16" viewBox="0 0 6 16" fill="none" xmlns="http://www.w3.org/2000/svg">
<path d="M3 6C4.65686 6 6 4.65685 6 3C6 1.34315 4.65686 0 3 0C1.34315 0 0 1.34315 0 3C0 4.65685 1.34315 6 3 6Z" fill="#A3D119"/>
<path d="M3 6C4.65686 6 6 4.65685 6 3C6 1.34315 4.65686 0 3 0C1.34315 0 0 1.34315 0 3C0 4.65685 1.34315 6 3 6Z" fill="white" fill-opacity="0.1"/>
<path d="M3 6C4.65686 6 6 4.65685 6 3C6 1.34315 4.65686 0 3 0C1.34315 0 0 1.34315 0 3C0 4.65685 1.34315 6 3 6Z" fill="#92C11C"/>
<path d="M3 16C4.65686 16 6 14.6569 6 13C6 11.3431 4.65686 10 3 10C1.34315 10 0 11.3431 0 13C0 14.6569 1.34315 16 3 16Z" fill="#A3D119"/>
<path d="M3 16C4.65686 16 6 14.6569 6 13C6 11.3431 4.65686 10 3 10C1.34315 10 0 11.3431 0 13C0 14.6569 1.34315 16 3 16Z" fill="white" fill-opacity="0.1"/>
<path d="M3 16C4.65686 16 6 14.6569 6 13C6 11.3431 4.65686 10 3 10C1.34315 10 0 11.3431 0 13C0 14.6569 1.34315 16 3 16Z" fill="#92C11C"/>
</svg>
