<svg width="220" height="208" viewBox="0 0 220 208" fill="none" xmlns="http://www.w3.org/2000/svg">
<g clip-path="url(#clip0_121_15154)">
<mask id="mask0_121_15154" style="mask-type:alpha" maskUnits="userSpaceOnUse" x="2" y="4" width="217" height="200">
<path d="M206.976 48.273C232.884 93.1471 210.731 154.602 157.248 185.48C103.765 216.359 39.4674 204.816 13.5593 159.942C-12.3487 115.068 9.804 53.6137 63.2873 22.7351C116.771 -8.14344 181.068 3.39897 206.976 48.273Z" fill="#D9D9D9" stroke="#242424"/>
</mask>
<g mask="url(#mask0_121_15154)">
<path d="M207.052 48.2293C232.991 93.1568 210.804 154.66 157.292 185.556C103.779 216.451 39.4226 204.913 13.4837 159.986C-12.4552 115.058 9.73127 53.5549 63.2436 22.6595C116.756 -8.23585 181.113 3.30188 207.052 48.2293Z" stroke="#171B37" stroke-width="0.825357"/>
<path d="M112.821 125.416V104.78H118.517L119.272 97.6685H112.821L112.83 94.1092C112.83 92.2545 113.006 91.2606 115.67 91.2606H119.232V84.1484H113.534C106.691 84.1484 104.282 87.5982 104.282 93.3997V97.6694H100.016V104.781H104.282V125.416H112.821Z" fill="#171B37"/>
</g>
</g>
<defs>
<clipPath id="clip0_121_15154">
<rect width="218.72" height="207.165" fill="white" transform="translate(0.560883 0.882812)"/>
</clipPath>
</defs>
</svg>
