<svg width="20" height="20" viewBox="0 0 20 20" fill="none" xmlns="http://www.w3.org/2000/svg">
<path fill-rule="evenodd" clip-rule="evenodd" d="M9.64203 0.922363C7.06199 0.922363 6.73819 0.933645 5.72486 0.979759C4.71351 1.02607 4.02317 1.18619 3.41913 1.42111C2.79431 1.66376 2.26429 1.98834 1.73625 2.51658C1.20781 3.04462 0.883225 3.57464 0.639787 4.19927C0.404267 4.80351 0.243954 5.49404 0.198433 6.505C0.15311 7.51833 0.141235 7.84232 0.141235 10.4224C0.141235 13.0024 0.152714 13.3252 0.198631 14.3385C0.245142 15.3499 0.405256 16.0402 0.639985 16.6443C0.882829 17.2691 1.20741 17.7991 1.73565 18.3272C2.2635 18.8556 2.79352 19.181 3.41794 19.4236C4.02238 19.6585 4.71291 19.8187 5.72407 19.865C6.7374 19.9111 7.061 19.9224 9.64084 19.9224C12.2211 19.9224 12.5439 19.9111 13.5572 19.865C14.5686 19.8187 15.2597 19.6585 15.8641 19.4236C16.4888 19.181 17.018 18.8556 17.5458 18.3272C18.0743 17.7991 18.3988 17.2691 18.6423 16.6445C18.8758 16.0402 19.0361 15.3497 19.0836 14.3387C19.1292 13.3254 19.141 13.0024 19.141 10.4224C19.141 7.84232 19.1292 7.51853 19.0836 6.5052C19.0361 5.49384 18.8758 4.80351 18.6423 4.19947C18.3988 3.57464 18.0743 3.04462 17.5458 2.51658C17.0174 1.98814 16.489 1.66356 15.8635 1.42111C15.2579 1.18619 14.5672 1.02607 13.5558 0.979759C12.5425 0.933645 12.2199 0.922363 9.63906 0.922363H9.64203ZM8.78992 2.63568C8.9554 2.63542 9.13341 2.6355 9.32552 2.63558L9.64215 2.63568C12.1786 2.63568 12.4793 2.64478 13.4809 2.6903C14.4072 2.73265 14.9099 2.88743 15.2448 3.01746C15.6881 3.18964 16.0042 3.39548 16.3365 3.72798C16.669 4.06048 16.8748 4.37714 17.0474 4.82048C17.1774 5.15496 17.3324 5.65767 17.3746 6.58392C17.4201 7.58537 17.43 7.88621 17.43 10.4215C17.43 12.9568 17.4201 13.2577 17.3746 14.2591C17.3322 15.1854 17.1774 15.6881 17.0474 16.0226C16.8752 16.4659 16.669 16.7816 16.3365 17.1139C16.004 17.4464 15.6883 17.6522 15.2448 17.8244C14.9103 17.955 14.4072 18.1094 13.4809 18.1517C12.4795 18.1973 12.1786 18.2072 9.64215 18.2072C7.10545 18.2072 6.80481 18.1973 5.80336 18.1517C4.8771 18.109 4.3744 17.9542 4.03932 17.8242C3.59599 17.652 3.27932 17.4462 2.94682 17.1137C2.61432 16.7812 2.40849 16.4653 2.23591 16.0218C2.10588 15.6873 1.95091 15.1846 1.90875 14.2583C1.86323 13.2569 1.85413 12.956 1.85413 10.4191C1.85413 7.88225 1.86323 7.583 1.90875 6.58154C1.95111 5.65529 2.10588 5.15258 2.23591 4.81771C2.40809 4.37437 2.61432 4.05771 2.94682 3.72521C3.27932 3.39271 3.59599 3.18687 4.03932 3.01429C4.3742 2.88367 4.8771 2.72929 5.80336 2.68674C6.67973 2.64715 7.01936 2.63528 8.78992 2.6333V2.63568ZM13.5729 5.35143C13.5729 4.72185 14.0835 4.21182 14.7129 4.21182V4.21143C15.3423 4.21143 15.8529 4.72205 15.8529 5.35143C15.8529 5.9808 15.3423 6.49143 14.7129 6.49143C14.0835 6.49143 13.5729 5.9808 13.5729 5.35143ZM9.64273 5.54346C6.94858 5.54356 4.76428 7.72793 4.76428 10.4221C4.76428 13.1163 6.94869 15.2998 9.64293 15.2998C12.3372 15.2998 14.5208 13.1163 14.5208 10.4221C14.5208 7.72786 12.337 5.54346 9.64273 5.54346ZM12.8086 10.4211C12.8086 8.67207 11.3907 7.25439 9.64189 7.25439C7.8929 7.25439 6.47522 8.67207 6.47522 10.4211C6.47522 12.1699 7.8929 13.5877 9.64189 13.5877C11.3907 13.5877 12.8086 12.1699 12.8086 10.4211Z" fill="white"/>
</svg>
