<svg width="219" height="208" viewBox="0 0 219 208" fill="none" xmlns="http://www.w3.org/2000/svg">
<g clip-path="url(#clip0_121_15164)">
<mask id="mask0_121_15164" style="mask-type:alpha" maskUnits="userSpaceOnUse" x="1" y="4" width="217" height="200">
<path d="M206.415 48.273C232.323 93.1471 210.17 154.602 156.687 185.48C103.204 216.359 38.9064 204.816 12.9984 159.942C-12.9096 115.068 9.24308 53.6137 62.7263 22.7351C116.21 -8.14344 180.507 3.39897 206.415 48.273Z" fill="#D9D9D9" stroke="#242424"/>
</mask>
<g mask="url(#mask0_121_15164)">
<path fill-rule="evenodd" clip-rule="evenodd" d="M109.358 80.0195C102.637 80.0195 101.793 80.049 99.1522 80.1691C96.5162 80.2898 94.717 80.7072 93.1426 81.3195C91.5141 81.9519 90.1326 82.7979 88.7563 84.1747C87.379 85.551 86.533 86.9324 85.8985 88.5604C85.2847 90.1353 84.8668 91.9351 84.7482 94.5701C84.6301 97.2112 84.5991 98.0556 84.5991 104.78C84.5991 111.505 84.629 112.346 84.7487 114.987C84.8699 117.623 85.2873 119.423 85.8991 120.997C86.532 122.625 87.378 124.007 88.7548 125.383C90.1306 126.761 91.512 127.609 93.1395 128.241C94.7149 128.853 96.5147 129.271 99.1502 129.391C101.791 129.512 102.635 129.541 109.359 129.541C116.084 129.541 116.925 129.512 119.566 129.391C122.202 129.271 124.004 128.853 125.579 128.241C127.207 127.609 128.587 126.761 129.962 125.383C131.34 124.007 132.186 122.625 132.82 120.997C133.429 119.423 133.847 117.623 133.97 114.988C134.089 112.347 134.12 111.505 134.12 104.78C134.12 98.0556 134.089 97.2117 133.97 94.5706C133.847 91.9346 133.429 90.1353 132.82 88.5609C132.186 86.9324 131.34 85.551 129.962 84.1747C128.585 82.7974 127.208 81.9514 125.578 81.3195C123.999 80.7072 122.199 80.2898 119.563 80.1691C116.922 80.049 116.081 80.0195 109.358 80.0195ZM108.536 84.4825H108.537L109.362 84.4828C115.973 84.4828 116.757 84.5065 119.367 84.6251C121.782 84.7355 123.092 85.1389 123.965 85.4778C125.12 85.9266 125.944 86.4631 126.81 87.3297C127.677 88.1963 128.213 89.0217 128.663 90.1772C129.002 91.049 129.406 92.3592 129.516 94.7734C129.634 97.3836 129.66 98.1677 129.66 104.776C129.66 111.384 129.634 112.168 129.516 114.778C129.405 117.192 129.002 118.502 128.663 119.374C128.214 120.53 127.677 121.352 126.81 122.219C125.944 123.085 125.121 123.622 123.965 124.07C123.093 124.411 121.782 124.813 119.367 124.924C116.757 125.042 115.973 125.068 109.362 125.068C102.75 125.068 101.967 125.042 99.3567 124.924C96.9425 124.812 95.6323 124.409 94.759 124.07C93.6035 123.621 92.7781 123.085 91.9115 122.218C91.0448 121.351 90.5084 120.528 90.0585 119.372C89.7196 118.5 89.3157 117.19 89.2059 114.776C89.0872 112.166 89.0635 111.382 89.0635 104.77C89.0635 98.1574 89.0872 97.3774 89.2059 94.7672C89.3162 92.353 89.7196 91.0428 90.0585 90.17C90.5073 89.0145 91.0448 88.1891 91.9115 87.3225C92.7781 86.4559 93.6035 85.9194 94.759 85.4696C95.6318 85.1291 96.9425 84.7267 99.3567 84.6158C101.641 84.5127 102.526 84.4817 107.141 84.4766V84.4828C107.572 84.4821 108.035 84.4823 108.536 84.4825H108.536H108.536ZM119.607 91.565C119.607 89.9241 120.938 88.5948 122.579 88.5948V88.5938C124.219 88.5938 125.55 89.9246 125.55 91.565C125.55 93.2054 124.219 94.5363 122.579 94.5363C120.938 94.5363 119.607 93.2054 119.607 91.565ZM109.364 92.0625C102.342 92.0628 96.6484 97.7561 96.6484 104.778C96.6484 111.8 102.342 117.491 109.364 117.491C116.386 117.491 122.078 111.8 122.078 104.778C122.078 97.7559 116.386 92.0625 109.364 92.0625ZM117.615 104.777C117.615 100.218 113.92 96.5234 109.362 96.5234C104.803 96.5234 101.108 100.218 101.108 104.777C101.108 109.335 104.803 113.031 109.362 113.031C113.92 113.031 117.615 109.335 117.615 104.777Z" fill="#171B37"/>
<path d="M206.491 48.2293C232.43 93.1568 210.243 154.66 156.731 185.556C103.219 216.451 38.8617 204.913 12.9228 159.986C-13.0161 115.058 9.17036 53.5549 62.6827 22.6595C116.195 -8.23585 180.552 3.30188 206.491 48.2293Z" stroke="#171B37" stroke-width="0.825357"/>
</g>
</g>
<defs>
<clipPath id="clip0_121_15164">
<rect width="218.72" height="207.165" fill="white" transform="translate(0 0.882812)"/>
</clipPath>
</defs>
</svg>
