<svg width="220" height="208" viewBox="0 0 220 208" fill="none" xmlns="http://www.w3.org/2000/svg">
<g clip-path="url(#clip0_121_15174)">
<mask id="mask0_121_15174" style="mask-type:alpha" maskUnits="userSpaceOnUse" x="2" y="4" width="217" height="200">
<path d="M207.135 48.273C233.043 93.1471 210.89 154.602 157.407 185.48C103.923 216.359 39.626 204.816 13.7179 159.942C-12.1901 115.068 9.96263 53.6137 63.4459 22.7351C116.929 -8.14344 181.227 3.39897 207.135 48.273Z" fill="#D9D9D9" stroke="#242424"/>
</mask>
<g mask="url(#mask0_121_15174)">
<path fill-rule="evenodd" clip-rule="evenodd" d="M99.0456 88.9541C99.0456 91.6277 97.0331 93.767 93.8018 93.767H93.7426C90.6313 93.767 88.6199 91.6277 88.6199 88.9541C88.6199 86.224 90.6926 84.1445 93.8628 84.1445C97.0331 84.1445 98.9855 86.224 99.0456 88.9541ZM98.4345 97.5663V125.411H89.1672V97.5663H98.4345ZM131.859 125.408L131.859 109.443C131.859 100.891 127.287 96.9102 121.189 96.9102C116.269 96.9102 114.066 99.6127 112.836 101.509V97.5647H103.567C103.689 100.178 103.567 125.409 103.567 125.409H112.836V109.859C112.836 109.026 112.896 108.196 113.141 107.6C113.811 105.938 115.336 104.217 117.896 104.217C121.251 104.217 122.592 106.77 122.592 110.512V125.408H131.859Z" fill="#171B37"/>
<path d="M207.21 48.2293C233.149 93.1568 210.963 154.66 157.45 185.556C103.938 216.451 39.5812 204.913 13.6423 159.986C-12.2966 115.058 9.8899 53.5549 63.4022 22.6595C116.915 -8.23585 181.271 3.30188 207.21 48.2293Z" stroke="#171B37" stroke-width="0.825357"/>
</g>
</g>
<defs>
<clipPath id="clip0_121_15174">
<rect width="218.72" height="207.165" fill="white" transform="translate(0.719543 0.882812)"/>
</clipPath>
</defs>
</svg>
