<svg width="20" height="19" viewBox="0 0 20 19" fill="none" xmlns="http://www.w3.org/2000/svg">
<path fill-rule="evenodd" clip-rule="evenodd" d="M4.72195 2.90204C4.72195 4.07689 3.83761 5.01696 2.41765 5.01696H2.39163C1.02445 5.01696 0.140594 4.07689 0.140594 2.90204C0.140594 1.70234 1.05137 0.788574 2.44449 0.788574C3.83761 0.788574 4.69552 1.70234 4.72195 2.90204ZM4.45316 6.68701V18.9227H0.380829V6.68701H4.45316ZM19.1411 18.9209L19.1412 11.9054C19.1412 8.14711 17.1322 6.39795 14.4524 6.39795C12.2903 6.39795 11.3223 7.58555 10.7818 8.41867V6.68559H6.70895C6.76263 7.83372 6.70895 18.9213 6.70895 18.9213H10.7818V12.0879C10.7818 11.7222 10.8082 11.3574 10.9159 11.0956C11.2102 10.365 11.8803 9.60863 13.0054 9.60863C14.4796 9.60863 15.0689 10.7306 15.0689 12.3748V18.9209H19.1411Z" fill="white"/>
</svg>
