<svg width="104" height="79" viewBox="0 0 104 79" fill="none" xmlns="http://www.w3.org/2000/svg">
<path d="M13.4975 12.5948C13.4975 12.5948 12.9837 7.14847 19.5798 3.91013C26.1759 0.671797 31.325 6.11809 31.325 6.11809C31.325 6.11809 36.1603 10.3979 34.8133 20.7823C33.4663 31.1666 26.8064 39.729 23.0015 43.5339C19.1966 47.3388 15.8305 50.0328 10.9868 51.2104C10.1592 51.4881 10.2981 51.9658 10.6425 52.3713C11.0729 52.8768 11.7562 53.0851 12.4088 52.9684C14.4474 52.6018 19.0021 51.5242 22.2683 49.5857C27.2868 46.8639 38.1406 39.243 41.6066 27.6089C44.7339 16.5469 42.5759 7.38732 35.2022 3.2908C27.8284 -0.805728 20.5324 1.65219 19.8631 1.87715C19.1938 2.10211 15.4444 3.09638 11.7423 7.86224C9.17604 11.1672 9.99813 15.6442 10.7424 18.0772C11.234 19.6797 12.2061 21.1072 13.5892 22.0543C15.3278 23.2485 17.9718 23.9456 21.0712 21.0433C24.8706 17.244 22.4516 12.2476 20.3103 11.1561C19.1438 10.5479 16.2332 10.1285 14.053 12.6836C13.828 12.9447 13.5031 12.8558 13.4948 12.5948H13.4975Z" fill="white"/>
<path d="M51.0575 27.6095C52.8137 27.6095 54.2375 26.1858 54.2375 24.4295C54.2375 22.6733 52.8137 21.2495 51.0575 21.2495C49.3012 21.2495 47.8774 22.6733 47.8774 24.4295C47.8774 26.1858 49.3012 27.6095 51.0575 27.6095Z" fill="white"/>
<path d="M51.0575 12.0876C52.8137 12.0876 54.2375 10.6638 54.2375 8.90755C54.2375 7.15128 52.8137 5.72754 51.0575 5.72754C49.3012 5.72754 47.8774 7.15128 47.8774 8.90755C47.8774 10.6638 49.3012 12.0876 51.0575 12.0876Z" fill="white"/>
<path d="M52.2557 35.7055C52.2557 35.165 52.0936 34.7597 51.7693 34.4354C51.445 34.1111 51.0397 33.949 50.4992 33.949C49.9588 33.949 49.5264 34.1111 49.2021 34.4354C48.8779 34.7597 48.7427 35.165 48.7427 35.7055V51.3786C48.7427 51.9191 48.8779 52.3515 49.2021 52.6757C49.5264 53 49.9588 53.1351 50.4992 53.1351C51.0397 53.1351 51.445 53 51.7693 52.6757C52.0936 52.3515 52.2557 51.9191 52.2557 51.3786V35.7055ZM64.2819 50.9733C65.2006 50.9733 65.8222 50.4869 66.1735 49.487L69.146 40.5695H69.2811L70.7673 51.6489C70.8214 52.0812 70.9835 52.4325 71.3078 52.7027C71.605 53 72.0104 53.1351 72.5238 53.1351C72.9832 53.1351 73.3615 53 73.6858 52.6757C73.983 52.3515 74.1452 51.9191 74.1452 51.3786C74.1452 51.0544 74.1181 50.7301 74.0911 50.4058C74.0371 50.0815 74.0101 49.8654 74.0101 49.7573L72.1185 35.7055C72.0104 35.0299 71.7672 34.4894 71.3618 34.1111C70.9295 33.7328 70.416 33.5436 69.8215 33.5436C69.2 33.5436 68.6866 33.7598 68.3083 34.1381C67.9299 34.5165 67.6057 35.0569 67.3895 35.7055L64.3359 44.7581H64.2278L61.1743 35.7055C60.9581 35.0299 60.6608 34.4894 60.2555 34.1111C59.8501 33.7328 59.3367 33.5436 58.7422 33.5436C58.1207 33.5436 57.6073 33.7328 57.2019 34.1111C56.7695 34.4894 56.5263 35.0299 56.4453 35.7055L54.5537 49.7573C54.5267 49.8654 54.4996 50.0815 54.4726 50.4058C54.4186 50.7301 54.4186 51.0544 54.4186 51.3786C54.4186 51.9191 54.5537 52.3515 54.878 52.6757C55.1752 53 55.5535 53.1351 56.0399 53.1351C56.5263 53.1351 56.9317 53 57.256 52.7027C57.5532 52.4325 57.7424 52.0812 57.7964 51.6489L59.2827 40.5695H59.4178L62.3903 49.487C62.7145 50.4869 63.3631 50.9733 64.2819 50.9733ZM87.2522 53C87.7116 53 88.0899 52.8649 88.4142 52.5406C88.7115 52.2434 88.8736 51.865 88.8736 51.3786C88.8736 50.9192 88.7115 50.5409 88.4142 50.2167C88.0899 49.9194 87.7116 49.7573 87.2522 49.7573H79.821V45.1634H84.8202C85.2796 45.1634 85.6579 45.0283 85.9822 44.704C86.2794 44.4068 86.4416 44.0285 86.4416 43.542C86.4416 43.0827 86.2794 42.7043 85.9822 42.3801C85.6579 42.0828 85.2796 41.9207 84.8202 41.9207H79.821V37.3268H86.982C87.4414 37.3268 87.8197 37.1917 88.144 36.8674C88.4412 36.5702 88.6034 36.1919 88.6034 35.7055C88.6034 35.2461 88.4412 34.8677 88.144 34.5435C87.8197 34.2462 87.4414 34.0841 86.982 34.0841H78.0645C77.5241 34.0841 77.0917 34.2462 76.7674 34.5705C76.4431 34.8948 76.308 35.3001 76.308 35.8406V51.2435C76.308 51.784 76.4431 52.2163 76.7674 52.5406C77.0917 52.8649 77.5241 53 78.0645 53H87.2522ZM92.243 34.0841C91.7025 34.0841 91.2702 34.2462 90.9459 34.5705C90.6216 34.8948 90.4865 35.3001 90.4865 35.8406V51.3786C90.4865 51.9191 90.6216 52.3515 90.9459 52.6757C91.2702 53 91.7025 53.1351 92.243 53.1351C92.7835 53.1351 93.1888 53 93.5131 52.6757C93.8373 52.3515 93.9995 51.9191 93.9995 51.3786V47.055H96.4315C97.4314 47.055 98.3501 46.8929 99.2149 46.5686C100.053 46.2443 100.782 45.7849 101.404 45.1904C101.998 44.5959 102.485 43.9204 102.809 43.1367C103.133 42.353 103.322 41.4883 103.322 40.5695C103.322 39.6508 103.133 38.8131 102.809 38.0294C102.485 37.2457 101.998 36.5702 101.404 35.9757C100.782 35.3812 100.053 34.9218 99.2149 34.5975C98.3501 34.2732 97.4314 34.0841 96.4315 34.0841H92.243ZM96.4315 37.3268C97.4584 37.3268 98.242 37.6241 98.8095 38.1915C99.377 38.759 99.6743 39.5427 99.6743 40.5695C99.6743 41.5964 99.377 42.4071 98.8095 42.9746C98.242 43.542 97.4584 43.8123 96.4315 43.8123H93.9995V37.3268H96.4315Z" fill="white"/>
</svg>
