<svg width="115" height="88" viewBox="0 0 115 88" fill="none" xmlns="http://www.w3.org/2000/svg">
<path d="M15.0441 13.8065C15.0441 13.8065 14.4714 7.73616 21.8233 4.12677C29.1752 0.517369 34.9144 6.58772 34.9144 6.58772C34.9144 6.58772 40.3037 11.3579 38.8023 22.9322C37.301 34.5064 29.8779 44.0499 25.637 48.2908C21.3961 52.5317 17.6444 55.5343 12.2457 56.8469C11.3233 57.1564 11.478 57.6888 11.8619 58.1408C12.3417 58.7042 13.1032 58.9363 13.8306 58.8063C16.1028 58.3977 21.1795 57.1966 24.8198 55.036C30.4134 52.0023 42.5108 43.5082 46.374 30.541C49.8596 18.2115 47.4544 8.00238 39.2357 3.43646C31.0171 -1.12946 22.8851 1.61009 22.1391 1.86083C21.393 2.11157 17.2141 3.21977 13.0877 8.53172C10.2274 12.2154 11.1437 17.2054 11.9733 19.9171C12.5212 21.7032 13.6047 23.2943 15.1463 24.3499C17.0841 25.681 20.031 26.458 23.4856 23.2231C27.7203 18.9884 25.0241 13.4196 22.6375 12.203C21.3373 11.5251 18.0932 11.0577 15.6632 13.9056C15.4125 14.1965 15.0503 14.0975 15.041 13.8065H15.0441Z" fill="#A3D119"/>
<path d="M15.0441 13.8065C15.0441 13.8065 14.4714 7.73616 21.8233 4.12677C29.1752 0.517369 34.9144 6.58772 34.9144 6.58772C34.9144 6.58772 40.3037 11.3579 38.8023 22.9322C37.301 34.5064 29.8779 44.0499 25.637 48.2908C21.3961 52.5317 17.6444 55.5343 12.2457 56.8469C11.3233 57.1564 11.478 57.6888 11.8619 58.1408C12.3417 58.7042 13.1032 58.9363 13.8306 58.8063C16.1028 58.3977 21.1795 57.1966 24.8198 55.036C30.4134 52.0023 42.5108 43.5082 46.374 30.541C49.8596 18.2115 47.4544 8.00238 39.2357 3.43646C31.0171 -1.12946 22.8851 1.61009 22.1391 1.86083C21.393 2.11157 17.2141 3.21977 13.0877 8.53172C10.2274 12.2154 11.1437 17.2054 11.9733 19.9171C12.5212 21.7032 13.6047 23.2943 15.1463 24.3499C17.0841 25.681 20.031 26.458 23.4856 23.2231C27.7203 18.9884 25.0241 13.4196 22.6375 12.203C21.3373 11.5251 18.0932 11.0577 15.6632 13.9056C15.4125 14.1965 15.0503 14.0975 15.041 13.8065H15.0441Z" fill="white" fill-opacity="0.1"/>
<path d="M15.0441 13.8065C15.0441 13.8065 14.4714 7.73616 21.8233 4.12677C29.1752 0.517369 34.9144 6.58772 34.9144 6.58772C34.9144 6.58772 40.3037 11.3579 38.8023 22.9322C37.301 34.5064 29.8779 44.0499 25.637 48.2908C21.3961 52.5317 17.6444 55.5343 12.2457 56.8469C11.3233 57.1564 11.478 57.6888 11.8619 58.1408C12.3417 58.7042 13.1032 58.9363 13.8306 58.8063C16.1028 58.3977 21.1795 57.1966 24.8198 55.036C30.4134 52.0023 42.5108 43.5082 46.374 30.541C49.8596 18.2115 47.4544 8.00238 39.2357 3.43646C31.0171 -1.12946 22.8851 1.61009 22.1391 1.86083C21.393 2.11157 17.2141 3.21977 13.0877 8.53172C10.2274 12.2154 11.1437 17.2054 11.9733 19.9171C12.5212 21.7032 13.6047 23.2943 15.1463 24.3499C17.0841 25.681 20.031 26.458 23.4856 23.2231C27.7203 18.9884 25.0241 13.4196 22.6375 12.203C21.3373 11.5251 18.0932 11.0577 15.6632 13.9056C15.4125 14.1965 15.0503 14.0975 15.041 13.8065H15.0441Z" fill="#92C11C"/>
<path d="M56.9078 30.5414C58.8653 30.5414 60.4522 28.9545 60.4522 26.997C60.4522 25.0395 58.8653 23.4526 56.9078 23.4526C54.9503 23.4526 53.3634 25.0395 53.3634 26.997C53.3634 28.9545 54.9503 30.5414 56.9078 30.5414Z" fill="#A3D119"/>
<path d="M56.9078 30.5414C58.8653 30.5414 60.4522 28.9545 60.4522 26.997C60.4522 25.0395 58.8653 23.4526 56.9078 23.4526C54.9503 23.4526 53.3634 25.0395 53.3634 26.997C53.3634 28.9545 54.9503 30.5414 56.9078 30.5414Z" fill="white" fill-opacity="0.1"/>
<path d="M56.9078 30.5414C58.8653 30.5414 60.4522 28.9545 60.4522 26.997C60.4522 25.0395 58.8653 23.4526 56.9078 23.4526C54.9503 23.4526 53.3634 25.0395 53.3634 26.997C53.3634 28.9545 54.9503 30.5414 56.9078 30.5414Z" fill="#92C11C"/>
<path d="M56.9078 13.2411C58.8653 13.2411 60.4522 11.6542 60.4522 9.69673C60.4522 7.73922 58.8653 6.15234 56.9078 6.15234C54.9503 6.15234 53.3634 7.73922 53.3634 9.69673C53.3634 11.6542 54.9503 13.2411 56.9078 13.2411Z" fill="#A3D119"/>
<path d="M56.9078 13.2411C58.8653 13.2411 60.4522 11.6542 60.4522 9.69673C60.4522 7.73922 58.8653 6.15234 56.9078 6.15234C54.9503 6.15234 53.3634 7.73922 53.3634 9.69673C53.3634 11.6542 54.9503 13.2411 56.9078 13.2411Z" fill="white" fill-opacity="0.1"/>
<path d="M56.9078 13.2411C58.8653 13.2411 60.4522 11.6542 60.4522 9.69673C60.4522 7.73922 58.8653 6.15234 56.9078 6.15234C54.9503 6.15234 53.3634 7.73922 53.3634 9.69673C53.3634 11.6542 54.9503 13.2411 56.9078 13.2411Z" fill="#92C11C"/>
<path d="M57.5975 39.3566C57.5975 38.7542 57.4168 38.3024 57.0553 37.941C56.6939 37.5796 56.2421 37.3989 55.6397 37.3989C55.0374 37.3989 54.5554 37.5796 54.194 37.941C53.8326 38.3024 53.682 38.7542 53.682 39.3566V56.8257C53.682 57.428 53.8326 57.91 54.194 58.2714C54.5554 58.6328 55.0374 58.7834 55.6397 58.7834C56.2421 58.7834 56.6939 58.6328 57.0553 58.2714C57.4168 57.91 57.5975 57.428 57.5975 56.8257V39.3566ZM71.0016 56.3739C72.0257 56.3739 72.7184 55.8317 73.11 54.7173L76.4231 44.778H76.5737L78.2302 57.1269C78.2905 57.6088 78.4712 58.0003 78.8326 58.3015C79.1639 58.6328 79.6157 58.7834 80.188 58.7834C80.7 58.7834 81.1217 58.6328 81.4831 58.2714C81.8144 57.91 81.9951 57.428 81.9951 56.8257C81.9951 56.4642 81.965 56.1028 81.9349 55.7414C81.8746 55.38 81.8445 55.139 81.8445 55.0185L79.7362 39.3566C79.6157 38.6036 79.3446 38.0012 78.8928 37.5796C78.4109 37.1579 77.8387 36.9471 77.1761 36.9471C76.4833 36.9471 75.9111 37.188 75.4894 37.6097C75.0677 38.0314 74.7063 38.6337 74.4653 39.3566L71.0619 49.4465H70.9414L67.538 39.3566C67.297 38.6036 66.9657 38.0012 66.5139 37.5796C66.0621 37.1579 65.4899 36.9471 64.8272 36.9471C64.1345 36.9471 63.5622 37.1579 63.1104 37.5796C62.6285 38.0012 62.3575 38.6036 62.2671 39.3566L60.1588 55.0185C60.1287 55.139 60.0985 55.38 60.0684 55.7414C60.0082 56.1028 60.0082 56.4642 60.0082 56.8257C60.0082 57.428 60.1588 57.91 60.5202 58.2714C60.8515 58.6328 61.2732 58.7834 61.8153 58.7834C62.3575 58.7834 62.8093 58.6328 63.1707 58.3015C63.502 58.0003 63.7128 57.6088 63.7731 57.1269L65.4296 44.778H65.5802L68.8933 54.7173C69.2547 55.8317 69.9776 56.3739 71.0016 56.3739ZM96.604 58.6328C97.1161 58.6328 97.5377 58.4822 97.8992 58.1208C98.2305 57.7895 98.4112 57.3678 98.4112 56.8257C98.4112 56.3136 98.2305 55.892 97.8992 55.5305C97.5377 55.1992 97.1161 55.0185 96.604 55.0185H88.3213V49.8983H93.8933C94.4053 49.8983 94.827 49.7477 95.1884 49.3863C95.5198 49.0549 95.7005 48.6333 95.7005 48.0911C95.7005 47.5791 95.5198 47.1574 95.1884 46.796C94.827 46.4647 94.4053 46.284 93.8933 46.284H88.3213V41.1637H96.3029C96.8149 41.1637 97.2365 41.0131 97.598 40.6517C97.9293 40.3204 98.11 39.8987 98.11 39.3566C98.11 38.8446 97.9293 38.4229 97.598 38.0615C97.2365 37.7302 96.8149 37.5495 96.3029 37.5495H86.3636C85.7612 37.5495 85.2793 37.7302 84.9178 38.0916C84.5564 38.453 84.4058 38.9048 84.4058 39.5072V56.6751C84.4058 57.2775 84.5564 57.7594 84.9178 58.1208C85.2793 58.4822 85.7612 58.6328 86.3636 58.6328H96.604ZM102.167 37.5495C101.564 37.5495 101.082 37.7302 100.721 38.0916C100.36 38.453 100.209 38.9048 100.209 39.5072V56.8257C100.209 57.428 100.36 57.91 100.721 58.2714C101.082 58.6328 101.564 58.7834 102.167 58.7834C102.769 58.7834 103.221 58.6328 103.582 58.2714C103.944 57.91 104.124 57.428 104.124 56.8257V52.0066H106.835C107.95 52.0066 108.974 51.8259 109.937 51.4645C110.871 51.103 111.684 50.591 112.377 49.9284C113.04 49.2658 113.582 48.5128 113.943 47.6393C114.305 46.7659 114.515 45.8021 114.515 44.778C114.515 43.754 114.305 42.8203 113.943 41.9468C113.582 41.0734 113.04 40.3204 112.377 39.6578C111.684 38.9952 110.871 38.4831 109.937 38.1217C108.974 37.7603 107.95 37.5495 106.835 37.5495H102.167ZM106.835 41.1637C107.98 41.1637 108.853 41.4951 109.486 42.1276C110.118 42.7601 110.449 43.6335 110.449 44.778C110.449 45.9226 110.118 46.8261 109.486 47.4586C108.853 48.0911 107.98 48.3923 106.835 48.3923H104.124V41.1637H106.835Z" fill="white"/>
</svg>
