<svg width="22" height="17" viewBox="0 0 22 17" fill="none" xmlns="http://www.w3.org/2000/svg">
<path d="M10.7197 4.63572L10.7636 5.35977L10.0318 5.27111C7.3679 4.93125 5.04068 3.77868 3.06473 1.84295L2.09872 0.882469L1.8499 1.59174C1.32298 3.17284 1.65962 4.84259 2.75737 5.96561C3.34283 6.58623 3.2111 6.67489 2.20117 6.30547C1.8499 6.18726 1.54253 6.0986 1.51325 6.14293C1.4108 6.24637 1.76208 7.59103 2.04017 8.12299C2.42072 8.86182 3.19646 9.58587 4.04539 10.0144L4.76258 10.3543L3.91366 10.369C3.09401 10.369 3.06473 10.3838 3.15255 10.6941C3.44529 11.6546 4.60158 12.6742 5.8896 13.1175L6.79707 13.4278L6.00669 13.9006C4.83576 14.5804 3.45992 14.9645 2.08408 14.9941C1.42543 15.0089 0.883881 15.068 0.883881 15.1123C0.883881 15.2601 2.66955 16.0876 3.70875 16.4126C6.82634 17.3731 10.5294 16.9594 13.3104 15.3192C15.2863 14.1518 17.2622 11.8319 18.1843 9.58587C18.682 8.38897 19.1796 6.20204 19.1796 5.1529C19.1796 4.47318 19.2235 4.38452 20.0432 3.57181C20.5262 3.09896 20.9799 2.58178 21.0678 2.43401C21.2141 2.15325 21.1995 2.15325 20.453 2.40446C19.2089 2.84775 19.0333 2.78865 19.648 2.1237C20.1017 1.65085 20.6433 0.79381 20.6433 0.542608C20.6433 0.498278 20.4237 0.572161 20.1749 0.70515C19.9115 0.852916 19.326 1.07456 18.8869 1.20755L18.0965 1.45876L17.3793 0.971128C16.9841 0.70515 16.428 0.409619 16.1352 0.320959C15.3888 0.114087 14.2471 0.14364 13.5738 0.380066C11.7442 1.04501 10.5879 2.75909 10.7197 4.63572Z" fill="white"/>
</svg>
