<svg width="219" height="208" viewBox="0 0 219 208" fill="none" xmlns="http://www.w3.org/2000/svg">
<g clip-path="url(#clip0_121_15159)">
<mask id="mask0_121_15159" style="mask-type:alpha" maskUnits="userSpaceOnUse" x="1" y="4" width="218" height="200">
<path d="M206.696 48.273C232.604 93.1471 210.451 154.602 156.968 185.48C103.484 216.359 39.1869 204.816 13.2789 159.942C-12.6292 115.068 9.52354 53.6137 63.0068 22.7351C116.49 -8.14344 180.788 3.39897 206.696 48.273Z" fill="#D9D9D9" stroke="#242424"/>
</mask>
<g mask="url(#mask0_121_15159)">
<path d="M109.127 95.1263L109.235 96.9113L107.431 96.6927C100.864 95.8549 95.127 93.0135 90.2559 88.2415L87.8744 85.8737L87.261 87.6223C85.9621 91.52 86.7919 95.6363 89.4981 98.4048C90.9414 99.9348 90.6167 100.153 88.127 99.2426C87.261 98.9512 86.5033 98.7327 86.4311 98.8419C86.1785 99.0969 87.0445 102.412 87.7301 103.723C88.6682 105.545 90.5806 107.33 92.6734 108.386L94.4414 109.224L92.3487 109.26C90.328 109.26 90.2559 109.297 90.4724 110.062C91.194 112.429 94.0445 114.943 97.2198 116.036L99.4569 116.801L97.5085 117.966C94.6219 119.642 91.2301 120.589 87.8383 120.662C86.2146 120.698 84.8796 120.844 84.8796 120.953C84.8796 121.318 89.2816 123.358 91.8435 124.159C99.5291 126.527 108.658 125.507 115.514 121.463C120.385 118.586 125.256 112.867 127.529 107.33C128.756 104.379 129.983 98.9876 129.983 96.4013C129.983 94.7256 130.091 94.5071 132.112 92.5035C133.302 91.3379 134.421 90.0629 134.637 89.6986C134.998 89.0065 134.962 89.0065 133.122 89.6258C130.055 90.7186 129.622 90.5729 131.137 88.9336C132.256 87.768 133.591 85.6552 133.591 85.0359C133.591 84.9266 133.05 85.1088 132.436 85.4366C131.787 85.8009 130.344 86.3473 129.261 86.6751L127.313 87.2944L125.545 86.0923C124.57 85.4366 123.199 84.708 122.478 84.4895C120.637 83.9795 117.823 84.0524 116.163 84.6352C111.653 86.2744 108.802 90.5 109.127 95.1263Z" fill="#171B37"/>
<path d="M206.771 48.2293C232.71 93.1568 210.524 154.66 157.011 185.556C103.499 216.451 39.1421 204.913 13.2032 159.986C-12.7357 115.058 9.45081 53.5549 62.9631 22.6595C116.475 -8.23585 180.832 3.30188 206.771 48.2293Z" stroke="#171B37" stroke-width="0.825357"/>
</g>
</g>
<defs>
<clipPath id="clip0_121_15159">
<rect width="218.72" height="207.165" fill="white" transform="translate(0.280457 0.882812)"/>
</clipPath>
</defs>
</svg>
